<?xml version="1.0" encoding="UTF-8" standalone="no"?>
<svg
   xmlns:dc="http://purl.org/dc/elements/1.1/"
   xmlns:cc="http://creativecommons.org/ns#"
   xmlns:rdf="http://www.w3.org/1999/02/22-rdf-syntax-ns#"
   xmlns:svg="http://www.w3.org/2000/svg"
   xmlns="http://www.w3.org/2000/svg"
   xmlns:xlink="http://www.w3.org/1999/xlink"
   xmlns:sodipodi="http://sodipodi.sourceforge.net/DTD/sodipodi-0.dtd"
   xmlns:inkscape="http://www.inkscape.org/namespaces/inkscape"
   width="918"
   height="835"
   viewBox="0 0 918 835"
   version="1.1"
   id="svg114"
   sodipodi:docname="Path.svg"
   inkscape:version="0.92.1 r15371">
  <metadata
     id="metadata118">
    <rdf:RDF>
      <cc:Work
         rdf:about="">
        <dc:format>image/svg+xml</dc:format>
        <dc:type
           rdf:resource="http://purl.org/dc/dcmitype/StillImage" />
      </cc:Work>
    </rdf:RDF>
  </metadata>
  <sodipodi:namedview
     pagecolor="#ffffff"
     bordercolor="#666666"
     borderopacity="1"
     objecttolerance="10"
     gridtolerance="10"
     guidetolerance="10"
     inkscape:pageopacity="0"
     inkscape:pageshadow="2"
     inkscape:window-width="1366"
     inkscape:window-height="704"
     id="namedview116"
     showgrid="false"
     inkscape:zoom="0.43781342"
     inkscape:cx="459"
     inkscape:cy="464.19733"
     inkscape:window-x="0"
     inkscape:window-y="27"
     inkscape:window-maximized="1"
     inkscape:current-layer="g110" />
  <defs
     id="defs100">
    <path
       id="96i8a"
       d="M464.408 48.926c89.406-9.838 213.798-7.173 268.219 46.733 54.216 54.111 38.258 159.259 13.503 256.208-24.551 97.154-57.9 185.905-115.185 256.414-57.285 70.713-138.303 122.775-218.298 118.47-79.79-4.304-158.354-65.384-203.16-129.744-44.6-64.36-55.443-131.998-118.253-172.582-62.81-40.583-177.585-53.906-216.866-99.203-39.282-45.298-3.069-122.57 21.687-216.855C-79.19 14.082-66.096-97.215-6.151-100.904c59.74-3.69 166.332 100.228 246.737 141.017C320.99 80.9 375.206 58.56 464.408 48.926z" />
    <mask
       id="96i8c"
       width="2"
       height="2"
       x="-1"
       y="-1">
      <path
         fill="#fff"
         d="M-143-101h912v828h-912z"
         id="path85" />
      <use
         xlink:href="#96i8a"
         id="use87" />
    </mask>
    <filter
       id="96i8b"
       width="940"
       height="858"
       x="-157"
       y="-115"
       filterUnits="userSpaceOnUse">
      <feOffset
         dy="2"
         in="SourceGraphic"
         result="FeOffset1046Out"
         id="feOffset90" />
      <feGaussianBlur
         in="FeOffset1046Out"
         result="FeGaussianBlur1047Out"
         stdDeviation="1.6 1.6"
         id="feGaussianBlur92" />
    </filter>
    <linearGradient
       id="96i8d"
       x1="-143"
       x2="769"
       y1="241.59"
       y2="241.59"
       gradientUnits="userSpaceOnUse">
      <stop
         offset="0"
         stop-color="#722599"
         id="stop95" />
      <stop
         offset="1"
         stop-color="#d94a7c"
         id="stop97" />
    </linearGradient>
  </defs>
  <g
     id="g112">
    <g
       opacity=".85"
       transform="translate(146 103)"
       id="g110">
      <g
         id="g106"
         transform="matrix(1.1570637,0,0,1.1570637,-122.98083,-116.69828)"
         style="filter:url(#96i8b)">
        <use
           mask="url(#96i8c)"
           xlink:href="#96i8a"
           id="use102"
           style="fill:none;stroke-width:0;stroke-opacity:0.5"
           x="0"
           y="0"
           width="100%"
           height="100%" />
        <use
           xlink:href="#96i8a"
           id="use104"
           style="fill-opacity:0.5"
           x="0"
           y="0"
           width="100%"
           height="100%" />
      </g>
      <use
         xlink:href="#96i8a"
         id="use108"
         style="fill:url(#96i8d)"
         transform="matrix(1.1875814,0,0,1.1875814,-144.25005,-136.37162)"
         x="0"
         y="0"
         width="100%"
         height="100%" />
    </g>
  </g>
</svg>
